<svg width="107" height="145" viewBox="0 0 107 145" fill="none" xmlns="http://www.w3.org/2000/svg">
<path d="M55.454 78.4393L55.4467 1.52954C55.4467 0.0443781 53.5486 -0.564174 52.6792 0.638447L44.1957 12.4183C42.399 14.9105 41.4282 17.9243 41.4282 20.9961V88.5312C44.8187 86.3143 48.3614 83.8366 51.991 81.0981C53.1646 80.2288 54.3165 79.3377 55.454 78.4393Z" fill="#4E8AD0"/>
<path d="M105.681 38.2167C102.132 33.5149 88.526 33.1454 74.8191 42.0927V23.6549C74.8191 20.6556 73.515 17.7794 71.2547 15.8016L64.365 9.78127C62.974 8.56416 60.8005 9.55669 60.8005 11.4041V74.0708C66.1544 69.5139 70.9431 64.9207 74.7104 60.6608C74.7466 60.6174 74.7828 60.5811 74.8191 60.5377V47.6493C81.8754 43.6213 86.5265 44.6211 87.874 46.4033C91.8731 51.6991 77.4054 69.3617 55.5699 85.8434C33.7271 102.325 12.7754 111.395 8.78358 106.1C6.53048 103.108 12.8189 92.0956 22.0776 83.0325V99.1519C26.026 97.5074 30.8002 95.0732 36.1034 91.9V28.4364C36.1034 26.9512 34.2052 26.3427 33.3359 27.5453L24.8451 39.3397C23.0484 41.8318 22.0776 44.8456 22.0776 47.9174V77.6497C6.8782 93.0954 -3.27885 111.627 0.973789 117.256C3.98034 121.241 11.7466 121.089 22.0776 117.619V122.654C22.0776 125.653 23.3817 128.529 25.642 130.507L32.5317 136.527C33.9227 137.744 36.0961 136.752 36.0961 134.905V111.649C37.8421 110.772 39.6243 109.831 41.4354 108.824V142.569C41.4354 144.055 43.3336 144.663 44.2029 143.461L52.6937 131.666C54.4904 129.174 55.4612 126.16 55.4612 123.088V100.21C57.2362 99.0143 59.0184 97.7755 60.8005 96.4931V116.546C60.8005 118.024 62.6987 118.64 63.568 117.438L72.0588 105.643C73.8555 103.151 74.8263 100.137 74.8263 97.0655V85.5536C97.9369 65.9277 111.419 45.8164 105.681 38.2167Z" fill="#4E8AD0"/>
</svg>
