<svg width="116" height="90" viewBox="0 0 116 90" fill="none" xmlns="http://www.w3.org/2000/svg">
<path d="M95.5481 9.69376L104.336 11.6007C71.4214 42.4301 38.9862 61.4998 7.03024 60.3874L1.75752 58.6393C1.43796 55.461 2.39663 52.2827 3.99443 49.7401C7.66936 54.0308 13.4214 56.4145 19.6528 55.1432C40.9035 51.0114 61.3553 38.775 81.0082 21.4534L81.9669 27.4921L89.7961 13.5077L74.1377 16.8449L80.2093 19.7054C53.0468 35.4378 28.1211 43.3836 6.71068 38.2983L2.23686 35.5968C3.03575 31.465 6.5509 28.2867 10.865 27.9689L16.2975 27.81L10.7052 37.3448C13.741 37.8216 16.9366 38.1394 20.1322 38.1394C21.0908 38.1394 22.0495 38.1394 23.0082 38.1394L36.1101 15.5736C37.7079 12.872 40.4242 11.2829 43.6198 11.2829H72.5399C75.0964 11.2829 77.3333 12.3953 78.9311 14.1434L90.595 11.7596L87.2396 6.03874C85.1625 2.54263 81.3278 0.317828 77.3333 0.317828H38.9862C34.8319 0.317828 31.157 2.54263 29.0798 6.03874L17.2561 26.3797L10.865 26.5387C5.43245 26.8565 0.958618 31.1472 0.639059 36.5502C-0.159839 40.9998 0.958618 45.1316 3.35531 48.4688C1.1184 51.6471 -5.91485e-05 55.7789 0.639059 59.9106C1.27818 76.2788 18.5344 86.4493 33.5537 79.616C61.3553 67.0618 85.3222 43.7014 106.573 13.8255L109.928 21.9301L116 0L95.5481 9.69376Z" fill="#4E8AD0"/>
<path d="M19.9725 56.8912C18.6942 57.0501 17.5758 57.209 16.4573 57.209C15.3389 57.209 14.3802 57.0501 13.2617 56.8912L14.2204 58.6393C18.0551 58.3214 22.0496 57.8447 26.0441 57.0501L25.5648 56.0966L25.2452 55.6199C23.4876 56.0966 21.73 56.5734 19.9725 56.8912Z" fill="#4E8AD0"/>
<path d="M85.3223 25.2673L85.6418 25.744C88.5179 23.5192 91.3939 20.9766 94.2699 18.5929L91.5537 13.8254L85.3223 25.1083V25.2673Z" fill="#4E8AD0"/>
<path d="M99.2229 27.1743L99.0631 26.8564C96.5067 30.0347 94.11 33.0541 91.5535 35.9146L91.7133 36.2324L94.2697 40.5231C95.8675 43.2246 95.8675 46.4029 94.2697 49.1044L79.8896 74.0539C78.2918 76.7555 75.5755 78.3446 72.3799 78.3446H43.4598C42.8207 78.3446 42.1816 78.3446 41.5425 78.1857C41.2229 78.1857 41.0631 78.0268 40.7436 78.0268C38.5067 79.1392 36.4295 80.2516 34.1926 81.2051C32.2753 81.9997 30.3579 82.6353 28.2808 83.1121L28.4405 83.4299L28.6003 83.7477C30.6775 87.2438 34.5122 89.4686 38.5067 89.4686H76.8538C81.008 89.4686 84.683 87.2438 86.7601 83.7477L105.934 50.6936C108.011 47.1975 108.011 42.7479 105.934 39.2518L99.2229 27.1743Z" fill="#4E8AD0"/>
</svg>
