<svg width="31" height="31" viewBox="0 0 31 31" fill="none" xmlns="http://www.w3.org/2000/svg">
<path fill-rule="evenodd" clip-rule="evenodd" d="M23.25 23.25C27.5477 18.9523 27.5477 12.0477 23.25 7.75C18.9523 3.45227 12.0477 3.45227 7.75 7.75C3.45227 12.0477 3.45227 18.9523 7.75 23.25C12.0477 27.5477 18.9523 27.5477 23.25 23.25ZM9.15902 9.15908C12.6818 5.63635 18.3181 5.63635 21.8408 9.15908C25.3636 12.6818 25.3636 18.3182 21.8408 21.8409C18.3181 25.3636 12.6818 25.3636 9.15902 21.8409C5.6363 18.3182 5.6363 12.6818 9.15902 9.15908Z" fill="black"/>
<mask id="mask0_107_32" style="mask-type:alpha" maskUnits="userSpaceOnUse" x="4" y="4" width="23" height="23">
<path fill-rule="evenodd" clip-rule="evenodd" d="M23.25 7.75C27.5477 12.0477 27.5477 18.9523 23.25 23.25C18.9523 27.5477 12.0477 27.5477 7.75 23.25C3.45227 18.9523 3.45227 12.0477 7.75 7.75C12.0477 3.45227 18.9523 3.45227 23.25 7.75ZM12.5031 19.1654C11.9401 19.1384 11.538 18.696 11.565 18.133C11.5919 17.57 12.0344 17.168 12.5974 17.1949L15.8346 17.3499L12.0823 13.2203C11.6803 12.7778 11.7073 12.2148 12.1497 11.8128C12.5922 11.4108 13.1552 11.4377 13.5572 11.8802L17.3095 16.0098L17.4645 12.7726C17.4914 12.2096 17.9339 11.8076 18.4969 11.8345C19.0599 11.8615 19.4619 12.304 19.4349 12.8669L19.1654 18.4969C19.1586 18.6376 19.1519 18.7784 19.0782 18.8454C19.0714 18.9861 18.9239 19.1201 18.8502 19.1871C18.7764 19.2541 18.629 19.3881 18.4882 19.3814C18.4145 19.4484 18.2737 19.4417 18.133 19.4349H18.133L12.5031 19.1654ZM9.15902 9.15908C12.6818 5.63635 18.3181 5.63635 21.8408 9.15908C25.3636 12.6818 25.3636 18.3182 21.8408 21.8409C18.3181 25.3636 12.6818 25.3636 9.15902 21.8409C5.6363 18.3182 5.6363 12.6818 9.15902 9.15908Z" fill="white"/>
</mask>
<g mask="url(#mask0_107_32)">
<rect x="3.54346" y="3.54346" width="23.9131" height="23.9131" fill="#DF5060"/>
</g>
</svg>
