<svg width="26" height="26" viewBox="0 0 26 26" fill="none" xmlns="http://www.w3.org/2000/svg">
<g clip-path="url(#clip0_263_65)">
<path d="M23.4533 16.82H19.6119L17.3199 10.7079H8.62083L6.32877 16.82H2.48306L0 24.4602H26L23.4533 16.82ZM9.6797 12.236H16.261L17.98 16.8201C16.8561 16.8201 9.08367 16.8201 7.96066 16.8201L9.6797 12.236ZM2.10334 22.9322L3.59318 18.3481H10.1489L11.8679 22.9322H2.10334ZM12.9704 21.5204L11.7808 18.3481H14.16L12.9704 21.5204ZM15.7918 18.3481H22.3519L23.8799 22.9322H14.0728L15.7918 18.3481Z" fill="#219653"/>
<path d="M12.2065 1.53967H13.7346V6.12378H12.2065V1.53967Z" fill="#219653"/>
<path d="M4.33691 4.90131L5.73961 4.2947L7.5595 8.50291L6.15681 9.10952L4.33691 4.90131Z" fill="#219653"/>
<path d="M18.3716 8.57257L20.0585 4.30935L21.4797 4.87169L19.7927 9.13491L18.3716 8.57257Z" fill="#219653"/>
</g>
<defs>
<clipPath id="clip0_263_65">
<rect width="26" height="26" fill="white"/>
</clipPath>
</defs>
</svg>
